<?xml version="1.0" encoding="UTF-8" standalone="no"?>
<!DOCTYPE svg PUBLIC "-//W3C//DTD SVG 1.1//EN"
 "http://www.w3.org/Graphics/SVG/1.1/DTD/svg11.dtd">
<!-- Generated by graphviz version 2.38.0 (20140413.2041)
 -->
<!-- Title: g Pages: 1 -->
<svg width="468pt" height="84pt"
 viewBox="0.00 0.00 468.00 84.30" xmlns="http://www.w3.org/2000/svg" xmlns:xlink="http://www.w3.org/1999/xlink">
<g id="graph0" class="graph" transform="scale(0.726708 0.726708) rotate(0) translate(4 112)">
<title>g</title>
<polygon fill="white" stroke="none" points="-4,4 -4,-112 640,-112 640,4 -4,4"/>
<!-- cRandom -->
<g id="node1" class="node"><title>cRandom</title>
<polygon fill="none" stroke="black" points="387,-108 309,-108 309,-72 387,-72 387,-108"/>
<text text-anchor="middle" x="348" y="-86.3" font-family="Arial" font-size="14.00">cRandom</text>
</g>
<!-- cUniform -->
<g id="node2" class="node"><title>cUniform</title>
<polygon fill="none" stroke="black" points="74,-36 0,-36 0,-0 74,-0 74,-36"/>
<text text-anchor="middle" x="37" y="-14.3" font-family="Arial" font-size="14.00">cUniform</text>
</g>
<!-- cRandom&#45;&gt;cUniform -->
<g id="edge1" class="edge"><title>cRandom&#45;&gt;cUniform</title>
<path fill="none" stroke="black" d="M299.007,-81.5646C245.406,-72.8843 157.222,-56.9976 83,-36 80.1326,-35.1888 77.1895,-34.2817 74.2448,-33.32"/>
<polygon fill="black" stroke="black" points="298.5,-85.0278 308.927,-83.1526 299.606,-78.1158 298.5,-85.0278"/>
</g>
<!-- cExponential -->
<g id="node3" class="node"><title>cExponential</title>
<polygon fill="none" stroke="black" points="190,-36 92,-36 92,-0 190,-0 190,-36"/>
<text text-anchor="middle" x="141" y="-14.3" font-family="Arial" font-size="14.00">cExponential</text>
</g>
<!-- cRandom&#45;&gt;cExponential -->
<g id="edge2" class="edge"><title>cRandom&#45;&gt;cExponential</title>
<path fill="none" stroke="black" d="M298.738,-72.3415C265.912,-61.2408 222.94,-46.7092 190.139,-35.6171"/>
<polygon fill="black" stroke="black" points="297.983,-75.7808 308.578,-75.6688 300.226,-69.1497 297.983,-75.7808"/>
</g>
<!-- cNormal -->
<g id="node4" class="node"><title>cNormal</title>
<polygon fill="none" stroke="black" points="277.5,-36 208.5,-36 208.5,-0 277.5,-0 277.5,-36"/>
<text text-anchor="middle" x="243" y="-14.3" font-family="Arial" font-size="14.00">cNormal</text>
</g>
<!-- cRandom&#45;&gt;cNormal -->
<g id="edge3" class="edge"><title>cRandom&#45;&gt;cNormal</title>
<path fill="none" stroke="black" d="M313.968,-66.3119C299.289,-56.5258 282.402,-45.2681 268.785,-36.1898"/>
<polygon fill="black" stroke="black" points="312.052,-69.2412 322.314,-71.8761 315.935,-63.4168 312.052,-69.2412"/>
</g>
<!-- cTruncNormal -->
<g id="node5" class="node"><title>cTruncNormal</title>
<polygon fill="none" stroke="black" points="400,-36 296,-36 296,-0 400,-0 400,-36"/>
<text text-anchor="middle" x="348" y="-14.3" font-family="Arial" font-size="14.00">cTruncNormal</text>
</g>
<!-- cRandom&#45;&gt;cTruncNormal -->
<g id="edge4" class="edge"><title>cRandom&#45;&gt;cTruncNormal</title>
<path fill="none" stroke="black" d="M348,-61.6651C348,-53.0537 348,-43.7913 348,-36.1043"/>
<polygon fill="black" stroke="black" points="344.5,-61.6966 348,-71.6966 351.5,-61.6967 344.5,-61.6966"/>
</g>
<!-- cGamma -->
<g id="node6" class="node"><title>cGamma</title>
<polygon fill="none" stroke="black" points="492,-36 418,-36 418,-0 492,-0 492,-36"/>
<text text-anchor="middle" x="455" y="-14.3" font-family="Arial" font-size="14.00">cGamma</text>
</g>
<!-- cRandom&#45;&gt;cGamma -->
<g id="edge5" class="edge"><title>cRandom&#45;&gt;cGamma</title>
<path fill="none" stroke="black" d="M382.68,-66.3119C397.639,-56.5258 414.847,-45.2681 428.724,-36.1898"/>
<polygon fill="black" stroke="black" points="380.627,-63.4725 374.175,-71.8761 384.46,-69.3303 380.627,-63.4725"/>
</g>
<!-- cBeta -->
<g id="node7" class="node"><title>cBeta</title>
<polygon fill="none" stroke="black" points="564,-36 510,-36 510,-0 564,-0 564,-36"/>
<text text-anchor="middle" x="537" y="-14.3" font-family="Arial" font-size="14.00">cBeta</text>
</g>
<!-- cRandom&#45;&gt;cBeta -->
<g id="edge6" class="edge"><title>cRandom&#45;&gt;cBeta</title>
<path fill="none" stroke="black" d="M396.993,-73.5211C427.265,-63.5903 466.741,-49.9754 501,-36 503.816,-34.8513 506.727,-33.5953 509.618,-32.3027"/>
<polygon fill="black" stroke="black" points="395.526,-70.3181 387.101,-76.7429 397.693,-76.974 395.526,-70.3181"/>
</g>
<!-- others -->
<g id="node8" class="node"><title>others</title>
<polygon fill="none" stroke="black" points="636,-36 582,-36 582,-0 636,-0 636,-36"/>
<text text-anchor="middle" x="609" y="-14.3" font-family="Arial" font-size="14.00">...</text>
</g>
<!-- cRandom&#45;&gt;others -->
<g id="edge7" class="edge"><title>cRandom&#45;&gt;others</title>
<path fill="none" stroke="black" d="M397.368,-80.4663C443.529,-71.7653 514.006,-56.6204 573,-36 575.871,-34.9965 578.818,-33.8358 581.731,-32.6015"/>
<polygon fill="black" stroke="black" points="396.521,-77.0636 387.327,-82.3294 397.798,-83.9462 396.521,-77.0636"/>
</g>
</g>
</svg>
