<?xml version="1.0" encoding="UTF-8" standalone="no"?>
<!DOCTYPE svg PUBLIC "-//W3C//DTD SVG 1.1//EN"
 "http://www.w3.org/Graphics/SVG/1.1/DTD/svg11.dtd">
<!-- Generated by graphviz version 2.38.0 (20140413.2041)
 -->
<!-- Title: g Pages: 1 -->
<svg width="562pt" height="269pt"
 viewBox="0.00 0.00 562.00 269.23" xmlns="http://www.w3.org/2000/svg" xmlns:xlink="http://www.w3.org/1999/xlink">
<g id="graph0" class="graph" transform="scale(0.825863 0.825863) rotate(0) translate(4 322)">
<title>g</title>
<polygon fill="white" stroke="none" points="-4,4 -4,-322 676.5,-322 676.5,4 -4,4"/>
<!-- cFigure -->
<g id="node1" class="node"><title>cFigure</title>
<polygon fill="none" stroke="black" points="134,-318 89,-318 89,-295 134,-295 134,-318"/>
<text text-anchor="middle" x="111.5" y="-304" font-family="Arial" font-size="10.00">cFigure</text>
</g>
<!-- cAbstractLineFigure -->
<g id="node2" class="node"><title>cAbstractLineFigure</title>
<polygon fill="none" stroke="black" points="161.5,-259 61.5,-259 61.5,-236 161.5,-236 161.5,-259"/>
<text text-anchor="middle" x="111.5" y="-245" font-family="Arial" font-size="10.00">cAbstractLineFigure</text>
</g>
<!-- cFigure&#45;&gt;cAbstractLineFigure -->
<g id="edge1" class="edge"><title>cFigure&#45;&gt;cAbstractLineFigure</title>
<path fill="none" stroke="black" d="M111.5,-284.632C111.5,-275.986 111.5,-266.327 111.5,-259.173"/>
<polygon fill="black" stroke="black" points="108,-284.779 111.5,-294.779 115,-284.779 108,-284.779"/>
</g>
<!-- cLineFigure -->
<g id="node3" class="node"><title>cLineFigure</title>
<polygon fill="none" stroke="black" points="63,-200 0,-200 0,-177 63,-177 63,-200"/>
<text text-anchor="middle" x="31.5" y="-186" font-family="Arial" font-size="10.00">cLineFigure</text>
</g>
<!-- cAbstractLineFigure&#45;&gt;cLineFigure -->
<g id="edge2" class="edge"><title>cAbstractLineFigure&#45;&gt;cLineFigure</title>
<path fill="none" stroke="black" d="M88.1385,-229.855C74.6925,-220.275 58.1943,-208.52 46.4799,-200.173"/>
<polygon fill="black" stroke="black" points="86.2774,-232.826 96.4526,-235.779 90.3394,-227.125 86.2774,-232.826"/>
</g>
<!-- cArcFigure -->
<g id="node4" class="node"><title>cArcFigure</title>
<polygon fill="none" stroke="black" points="141.5,-200 81.5,-200 81.5,-177 141.5,-177 141.5,-200"/>
<text text-anchor="middle" x="111.5" y="-186" font-family="Arial" font-size="10.00">cArcFigure</text>
</g>
<!-- cAbstractLineFigure&#45;&gt;cArcFigure -->
<g id="edge3" class="edge"><title>cAbstractLineFigure&#45;&gt;cArcFigure</title>
<path fill="none" stroke="black" d="M111.5,-225.632C111.5,-216.986 111.5,-207.327 111.5,-200.173"/>
<polygon fill="black" stroke="black" points="108,-225.779 111.5,-235.779 115,-225.779 108,-225.779"/>
</g>
<!-- cPolylineFigure -->
<g id="node5" class="node"><title>cPolylineFigure</title>
<polygon fill="none" stroke="black" points="238,-200 159,-200 159,-177 238,-177 238,-200"/>
<text text-anchor="middle" x="198.5" y="-186" font-family="Arial" font-size="10.00">cPolylineFigure</text>
</g>
<!-- cAbstractLineFigure&#45;&gt;cPolylineFigure -->
<g id="edge4" class="edge"><title>cAbstractLineFigure&#45;&gt;cPolylineFigure</title>
<path fill="none" stroke="black" d="M136.489,-230.128C151.186,-220.499 169.349,-208.599 182.209,-200.173"/>
<polygon fill="black" stroke="black" points="134.311,-227.371 127.864,-235.779 138.147,-233.226 134.311,-227.371"/>
</g>
<!-- cFigure2 -->
<g id="node6" class="node"><title>cFigure2</title>
<polygon fill="none" stroke="black" points="541,-318 496,-318 496,-295 541,-295 541,-318"/>
<text text-anchor="middle" x="518.5" y="-304" font-family="Arial" font-size="10.00">cFigure</text>
</g>
<!-- cAbstractTextFigure -->
<g id="node7" class="node"><title>cAbstractTextFigure</title>
<polygon fill="none" stroke="black" points="421.5,-259 321.5,-259 321.5,-236 421.5,-236 421.5,-259"/>
<text text-anchor="middle" x="371.5" y="-245" font-family="Arial" font-size="10.00">cAbstractTextFigure</text>
</g>
<!-- cFigure2&#45;&gt;cAbstractTextFigure -->
<g id="edge5" class="edge"><title>cFigure2&#45;&gt;cAbstractTextFigure</title>
<path fill="none" stroke="black" d="M486.355,-293.036C460.119,-282.863 423.462,-268.648 398.673,-259.036"/>
<polygon fill="black" stroke="black" points="485.264,-296.367 495.853,-296.719 487.795,-289.84 485.264,-296.367"/>
</g>
<!-- cAbstractImageFigure -->
<g id="node10" class="node"><title>cAbstractImageFigure</title>
<polygon fill="none" stroke="black" points="572.5,-259 464.5,-259 464.5,-236 572.5,-236 572.5,-259"/>
<text text-anchor="middle" x="518.5" y="-245" font-family="Arial" font-size="10.00">cAbstractImageFigure</text>
</g>
<!-- cFigure2&#45;&gt;cAbstractImageFigure -->
<g id="edge8" class="edge"><title>cFigure2&#45;&gt;cAbstractImageFigure</title>
<path fill="none" stroke="black" d="M518.5,-284.632C518.5,-275.986 518.5,-266.327 518.5,-259.173"/>
<polygon fill="black" stroke="black" points="515,-284.779 518.5,-294.779 522,-284.779 515,-284.779"/>
</g>
<!-- cGroupFigure -->
<g id="node14" class="node"><title>cGroupFigure</title>
<polygon fill="none" stroke="black" points="662,-259 591,-259 591,-236 662,-236 662,-259"/>
<text text-anchor="middle" x="626.5" y="-245" font-family="Arial" font-size="10.00">cGroupFigure</text>
</g>
<!-- cFigure2&#45;&gt;cGroupFigure -->
<g id="edge12" class="edge"><title>cFigure2&#45;&gt;cGroupFigure</title>
<path fill="none" stroke="black" d="M547.528,-290.18C566.201,-280.324 589.983,-267.773 606.547,-259.031"/>
<polygon fill="black" stroke="black" points="545.771,-287.149 538.561,-294.912 549.038,-293.34 545.771,-287.149"/>
</g>
<!-- cTextFigure -->
<g id="node8" class="node"><title>cTextFigure</title>
<polygon fill="none" stroke="black" points="319,-200 256,-200 256,-177 319,-177 319,-200"/>
<text text-anchor="middle" x="287.5" y="-186" font-family="Arial" font-size="10.00">cTextFigure</text>
</g>
<!-- cAbstractTextFigure&#45;&gt;cTextFigure -->
<g id="edge6" class="edge"><title>cAbstractTextFigure&#45;&gt;cTextFigure</title>
<path fill="none" stroke="black" d="M347.373,-230.128C333.183,-220.499 315.646,-208.599 303.229,-200.173"/>
<polygon fill="black" stroke="black" points="345.46,-233.06 355.7,-235.779 349.391,-227.268 345.46,-233.06"/>
</g>
<!-- cLabelFigure -->
<g id="node9" class="node"><title>cLabelFigure</title>
<polygon fill="none" stroke="black" points="405.5,-200 337.5,-200 337.5,-177 405.5,-177 405.5,-200"/>
<text text-anchor="middle" x="371.5" y="-186" font-family="Arial" font-size="10.00">cLabelFigure</text>
</g>
<!-- cAbstractTextFigure&#45;&gt;cLabelFigure -->
<g id="edge7" class="edge"><title>cAbstractTextFigure&#45;&gt;cLabelFigure</title>
<path fill="none" stroke="black" d="M371.5,-225.632C371.5,-216.986 371.5,-207.327 371.5,-200.173"/>
<polygon fill="black" stroke="black" points="368,-225.779 371.5,-235.779 375,-225.779 368,-225.779"/>
</g>
<!-- cFigure3 -->
<g id="node15" class="node"><title>cFigure3</title>
<polygon fill="none" stroke="black" points="394,-141 349,-141 349,-118 394,-118 394,-141"/>
<text text-anchor="middle" x="371.5" y="-127" font-family="Arial" font-size="10.00">cFigure</text>
</g>
<!-- cLabelFigure&#45;&gt;cFigure3 -->
<!-- cImageFigure -->
<g id="node11" class="node"><title>cImageFigure</title>
<polygon fill="none" stroke="black" points="495,-200 424,-200 424,-177 495,-177 495,-200"/>
<text text-anchor="middle" x="459.5" y="-186" font-family="Arial" font-size="10.00">cImageFigure</text>
</g>
<!-- cAbstractImageFigure&#45;&gt;cImageFigure -->
<g id="edge9" class="edge"><title>cAbstractImageFigure&#45;&gt;cImageFigure</title>
<path fill="none" stroke="black" d="M500.128,-228.751C490.433,-219.384 478.858,-208.202 470.548,-200.173"/>
<polygon fill="black" stroke="black" points="497.779,-231.348 507.403,-235.779 502.642,-226.313 497.779,-231.348"/>
</g>
<!-- cIconFigure -->
<g id="node12" class="node"><title>cIconFigure</title>
<polygon fill="none" stroke="black" points="576,-200 513,-200 513,-177 576,-177 576,-200"/>
<text text-anchor="middle" x="544.5" y="-186" font-family="Arial" font-size="10.00">cIconFigure</text>
</g>
<!-- cAbstractImageFigure&#45;&gt;cIconFigure -->
<g id="edge10" class="edge"><title>cAbstractImageFigure&#45;&gt;cIconFigure</title>
<path fill="none" stroke="black" d="M527.626,-226.493C531.668,-217.632 536.259,-207.566 539.632,-200.173"/>
<polygon fill="black" stroke="black" points="524.356,-225.228 523.39,-235.779 530.725,-228.133 524.356,-225.228"/>
</g>
<!-- cPixmapFigure -->
<g id="node13" class="node"><title>cPixmapFigure</title>
<polygon fill="none" stroke="black" points="672.5,-200 594.5,-200 594.5,-177 672.5,-177 672.5,-200"/>
<text text-anchor="middle" x="633.5" y="-186" font-family="Arial" font-size="10.00">cPixmapFigure</text>
</g>
<!-- cAbstractImageFigure&#45;&gt;cPixmapFigure -->
<g id="edge11" class="edge"><title>cAbstractImageFigure&#45;&gt;cPixmapFigure</title>
<path fill="none" stroke="black" d="M548.866,-231.449C568.83,-221.554 594.455,-208.853 612.253,-200.031"/>
<polygon fill="black" stroke="black" points="547.267,-228.335 539.861,-235.912 550.375,-234.607 547.267,-228.335"/>
</g>
<!-- cAbstractShapeFigure -->
<g id="node16" class="node"><title>cAbstractShapeFigure</title>
<polygon fill="none" stroke="black" points="426,-82 317,-82 317,-59 426,-59 426,-82"/>
<text text-anchor="middle" x="371.5" y="-68" font-family="Arial" font-size="10.00">cAbstractShapeFigure</text>
</g>
<!-- cFigure3&#45;&gt;cAbstractShapeFigure -->
<g id="edge13" class="edge"><title>cFigure3&#45;&gt;cAbstractShapeFigure</title>
<path fill="none" stroke="black" d="M371.5,-107.632C371.5,-98.9857 371.5,-89.3273 371.5,-82.1732"/>
<polygon fill="black" stroke="black" points="368,-107.779 371.5,-117.779 375,-107.779 368,-107.779"/>
</g>
<!-- cRectangleFigure -->
<g id="node17" class="node"><title>cRectangleFigure</title>
<polygon fill="none" stroke="black" points="194.5,-23 106.5,-23 106.5,-0 194.5,-0 194.5,-23"/>
<text text-anchor="middle" x="150.5" y="-9" font-family="Arial" font-size="10.00">cRectangleFigure</text>
</g>
<!-- cAbstractShapeFigure&#45;&gt;cRectangleFigure -->
<g id="edge14" class="edge"><title>cAbstractShapeFigure&#45;&gt;cRectangleFigure</title>
<path fill="none" stroke="black" d="M320.811,-56.4263C281.581,-46.3082 227.956,-32.4773 191.428,-23.0562"/>
<polygon fill="black" stroke="black" points="320.15,-59.8705 330.708,-58.9789 321.899,-53.0923 320.15,-59.8705"/>
</g>
<!-- cOvalFigure -->
<g id="node18" class="node"><title>cOvalFigure</title>
<polygon fill="none" stroke="black" points="276.5,-23 212.5,-23 212.5,-0 276.5,-0 276.5,-23"/>
<text text-anchor="middle" x="244.5" y="-9" font-family="Arial" font-size="10.00">cOvalFigure</text>
</g>
<!-- cAbstractShapeFigure&#45;&gt;cOvalFigure -->
<g id="edge15" class="edge"><title>cAbstractShapeFigure&#45;&gt;cOvalFigure</title>
<path fill="none" stroke="black" d="M338.562,-54.7168C316.431,-44.7841 287.797,-31.9326 267.964,-23.031"/>
<polygon fill="black" stroke="black" points="337.353,-58.0107 347.91,-58.9123 340.22,-51.6244 337.353,-58.0107"/>
</g>
<!-- cRingFigure -->
<g id="node19" class="node"><title>cRingFigure</title>
<polygon fill="none" stroke="black" points="358.5,-23 294.5,-23 294.5,-0 358.5,-0 358.5,-23"/>
<text text-anchor="middle" x="326.5" y="-9" font-family="Arial" font-size="10.00">cRingFigure</text>
</g>
<!-- cAbstractShapeFigure&#45;&gt;cRingFigure -->
<g id="edge16" class="edge"><title>cAbstractShapeFigure&#45;&gt;cRingFigure</title>
<path fill="none" stroke="black" d="M356.825,-50.9115C349.57,-41.7225 341.076,-30.9633 334.926,-23.1732"/>
<polygon fill="black" stroke="black" points="354.092,-53.0987 363.036,-58.7787 359.586,-48.7611 354.092,-53.0987"/>
</g>
<!-- cPieSliceFigure -->
<g id="node20" class="node"><title>cPieSliceFigure</title>
<polygon fill="none" stroke="black" points="458,-23 377,-23 377,-0 458,-0 458,-23"/>
<text text-anchor="middle" x="417.5" y="-9" font-family="Arial" font-size="10.00">cPieSliceFigure</text>
</g>
<!-- cAbstractShapeFigure&#45;&gt;cPieSliceFigure -->
<g id="edge17" class="edge"><title>cAbstractShapeFigure&#45;&gt;cPieSliceFigure</title>
<path fill="none" stroke="black" d="M386.501,-50.9115C393.917,-41.7225 402.6,-30.9633 408.887,-23.1732"/>
<polygon fill="black" stroke="black" points="383.709,-48.7987 380.152,-58.7787 389.156,-53.1948 383.709,-48.7987"/>
</g>
<!-- cPolygonFigure -->
<g id="node21" class="node"><title>cPolygonFigure</title>
<polygon fill="none" stroke="black" points="556.5,-23 476.5,-23 476.5,-0 556.5,-0 556.5,-23"/>
<text text-anchor="middle" x="516.5" y="-9" font-family="Arial" font-size="10.00">cPolygonFigure</text>
</g>
<!-- cAbstractShapeFigure&#45;&gt;cPolygonFigure -->
<g id="edge18" class="edge"><title>cAbstractShapeFigure&#45;&gt;cPolygonFigure</title>
<path fill="none" stroke="black" d="M407.754,-55.2484C433.198,-45.2464 466.66,-32.0923 489.711,-23.031"/>
<polygon fill="black" stroke="black" points="406.46,-51.9964 398.434,-58.9123 409.021,-58.5111 406.46,-51.9964"/>
</g>
<!-- cPathFigure -->
<g id="node22" class="node"><title>cPathFigure</title>
<polygon fill="none" stroke="black" points="640,-23 575,-23 575,-0 640,-0 640,-23"/>
<text text-anchor="middle" x="607.5" y="-9" font-family="Arial" font-size="10.00">cPathFigure</text>
</g>
<!-- cAbstractShapeFigure&#45;&gt;cPathFigure -->
<g id="edge19" class="edge"><title>cAbstractShapeFigure&#45;&gt;cPathFigure</title>
<path fill="none" stroke="black" d="M426.28,-56.5197C465.157,-47.2712 518.56,-34.4926 565.5,-23 568.566,-22.2493 571.757,-21.4623 574.948,-20.6711"/>
<polygon fill="black" stroke="black" points="425.14,-53.1931 416.221,-58.9111 426.759,-60.0033 425.14,-53.1931"/>
</g>
</g>
</svg>
